<?xml version="1.0" standalone="no"?>
<!DOCTYPE svg PUBLIC "-//W3C//DTD SVG 20010904//EN"
 "http://www.w3.org/TR/2001/REC-SVG-20010904/DTD/svg10.dtd">
<svg version="1.0" xmlns="http://www.w3.org/2000/svg"
 width="846.000000pt" height="846.000000pt" viewBox="0 0 846.000000 846.000000"
 preserveAspectRatio="xMidYMid meet">
<metadata>
Created by potrace 1.14, written by Peter Selinger 2001-2017
</metadata>
<g transform="translate(0.000000,846.000000) scale(0.100000,-0.100000)"
fill="#000000" stroke="none">
<path d="M2882 7799 c-838 -46 -1238 -72 -1248 -80 -10 -9 -13 -28 -9 -78 5
-50 113 -2300 170 -3531 11 -219 9 -214 63 -239 26 -11 375 -158 776 -325 401
-167 733 -311 737 -318 6 -11 49 -2148 49 -2414 0 -17 50 -52 253 -175 138
-84 320 -194 403 -245 l151 -92 94 57 c448 270 687 416 701 430 15 14 17 64
23 461 4 245 8 519 10 610 2 91 6 365 10 610 11 743 12 751 27 765 7 7 193 88
413 180 220 91 458 191 528 221 71 30 134 54 141 54 6 0 16 4 22 9 5 5 88 41
184 81 218 90 257 107 264 118 5 9 12 99 21 297 3 66 7 156 10 200 2 44 7 134
10 200 3 66 8 163 10 215 2 52 7 149 10 215 3 66 7 158 10 205 2 47 7 141 10
210 5 119 9 191 20 430 3 58 7 155 10 215 3 61 7 153 10 205 3 52 7 149 10
215 9 195 15 324 20 420 3 50 7 149 10 220 5 122 21 396 29 512 3 32 -1 56 -7
62 -16 13 -68 19 -227 26 -74 3 -160 8 -190 10 -56 4 -173 10 -380 20 -63 3
-487 26 -942 50 -455 25 -860 44 -900 44 -40 -1 -628 -32 -1306 -70z m427
-1175 c11 -10 15 -49 17 -171 1 -87 5 -363 8 -613 3 -250 9 -504 12 -565 4
-60 7 -129 8 -152 l2 -42 -66 -24 c-36 -13 -66 -23 -68 -22 -2 2 -8 271 -17
805 -3 179 -8 434 -11 568 l-5 243 53 -7 c29 -3 59 -12 67 -20z m1957 -241
c-4 -148 -9 -331 -11 -408 -2 -77 -7 -241 -10 -365 -8 -342 -16 -564 -19 -567
-1 -2 -24 3 -50 11 -25 8 -50 15 -54 15 -8 1 -7 446 1 911 3 162 7 365 7 450
2 216 0 208 69 213 31 2 60 4 65 5 4 1 5 -117 2 -265z"/>
</g>
</svg>
